<?xml version="1.0" encoding="UTF-8"?>
<svg version="1.1" xmlns="http://www.w3.org/2000/svg" width="1838" height="547">
<path d="M0 0 C0.73105957 0.16628906 1.46211914 0.33257812 2.21533203 0.50390625 C31.53514611 7.35344101 56.33669357 22.36396333 78 43 C78.76957031 43.70511719 79.53914063 44.41023438 80.33203125 45.13671875 C107.8587537 71.17551026 123.43489931 111.00782652 125.10986328 148.45629883 C125.16912703 150.95110349 125.1898853 153.44200054 125.1875 155.9375 C125.1862915 157.27917236 125.1862915 157.27917236 125.18505859 158.64794922 C125.1280474 165.00749178 124.76523271 171.29803044 124.125 177.625 C124.04660889 178.42413818 123.96821777 179.22327637 123.88745117 180.04663086 C123.4703337 183.71990409 123.08373031 185.87440454 121 189 C118.06622195 189.29413618 115.34355029 189.39094208 112.40744019 189.36076355 C111.50734982 189.36332682 110.60725945 189.3658901 109.67989361 189.36853105 C106.64562919 189.37349621 103.61185575 189.3569311 100.57763672 189.34057617 C98.40988171 189.33973049 96.24212584 189.34020389 94.07437134 189.34190369 C88.17377687 189.34276736 82.27336393 189.32508144 76.37281179 189.30418181 C70.21218368 189.28547691 64.05155179 189.28366947 57.89089966 189.28010559 C46.21782314 189.27076689 34.54483052 189.24612846 22.87179101 189.21605712 C9.58542992 189.18256981 -3.70092891 189.16604139 -16.987324 189.15097082 C-44.32492925 189.11958048 -71.66245993 189.06678459 -99 189 C-99.65192688 186.50145233 -100.29663064 184.0013863 -100.9375 181.5 C-101.11990234 180.80390625 -101.30230469 180.1078125 -101.49023438 179.390625 C-106.15622381 161.06601196 -104.37887178 142.9295726 -99 125 C-48.51 124.67 1.98 124.34 54 124 C42.74055906 97.72797114 25.81569993 78.55266377 -0.84619141 67.79296875 C-24.54576751 59.06748437 -51.01389898 59.47723081 -74 70 C-83.67974553 74.54323954 -92.05624217 79.74700372 -100 87 C-100.72832031 87.65871094 -101.45664063 88.31742187 -102.20703125 88.99609375 C-119.44321318 105.37541004 -128.77214283 129.1130991 -130.21875 152.54296875 C-130.89139674 179.14054197 -121.5339371 203.06085477 -103.625 222.58984375 C-87.56902265 239.27300771 -64.60827654 250.41250493 -41.30859375 251.3359375 C-12.24457161 251.78454715 10.95408383 243.68942595 32.30859375 223.61328125 C34.11361804 221.86065244 35.85710468 220.04252559 37.53515625 218.16796875 C40 216 40 216 42.38334656 215.63522339 C45.78212685 216.109033 46.90613509 217.26694171 49.33129883 219.66845703 C50.151772 220.46994171 50.97224518 221.27142639 51.81758118 222.09719849 C52.6885997 222.97520111 53.55961823 223.85320374 54.45703125 224.7578125 C55.81147591 226.1015242 55.81147591 226.1015242 57.19328308 227.47238159 C59.10017194 229.37148142 61.00104362 231.27495936 62.89428711 233.1875 C65.3181799 235.6342693 67.76601669 238.05534888 70.2218523 240.47000313 C72.56449723 242.7808828 74.88458744 245.11415821 77.20703125 247.4453125 C78.08817093 248.31116974 78.96931061 249.17702698 79.87715149 250.06912231 C80.68186386 250.88951996 81.48657623 251.7099176 82.31567383 252.55517578 C83.0289534 253.27021271 83.74223297 253.98524963 84.47712708 254.72195435 C86.45061559 257.67406996 86.40809957 259.51571292 86 263 C84.3125 265.30859375 84.3125 265.30859375 82 267.4375 C81.16984375 268.2109375 80.3396875 268.984375 79.484375 269.78125 C78.66453125 270.5134375 77.8446875 271.245625 77 272 C76.36578125 272.5878125 75.7315625 273.175625 75.078125 273.78125 C46.80161143 299.39928793 10.40665105 315.74523725 -28 317 C-29.03125 317.03996094 -30.0625 317.07992188 -31.125 317.12109375 C-76.40290747 318.0119785 -117.13638176 300.39222684 -149.60107422 269.36279297 C-178.36985793 241.33707731 -194.62362658 200.85319898 -195.3515625 160.99365234 C-195.62683906 114.82174481 -179.25959239 74.1155683 -147 41 C-144.43812847 38.52027264 -141.77250727 36.24045922 -139 34 C-137.65421875 32.88044922 -137.65421875 32.88044922 -136.28125 31.73828125 C-116.83758046 16.09987532 -94.24308654 5.63487957 -70 0 C-69.33871094 -0.16371094 -68.67742187 -0.32742187 -67.99609375 -0.49609375 C-46.77567729 -5.60080626 -21.16534971 -4.99512086 0 0 Z " fill="#077666" transform="translate(240,98)"/>
<path d="M0 0 C0.74273163 0.00021149 1.48546326 0.00042297 2.2507019 0.00064087 C15.0374397 0.03681051 27.1344342 1.21541026 39.5625 4.375 C40.31192871 4.55691895 41.06135742 4.73883789 41.83349609 4.92626953 C80.09598565 14.38830839 115.00996359 39.85327797 135.78369141 73.34375 C138.54775999 77.93297777 141.0978117 82.61937737 143.5625 87.375 C144.04178955 88.28668945 144.04178955 88.28668945 144.53076172 89.21679688 C163.55713687 125.85723913 165.60536112 170.82096559 153.38720703 209.92871094 C146.6039024 230.04970337 136.36561435 248.27608078 122.5625 264.375 C122.08554688 264.93171387 121.60859375 265.48842773 121.1171875 266.06201172 C93.48354996 297.91642879 55.05833863 315.97626712 13.3125 320.0625 C-27.30363299 322.72949642 -68.8796944 311.24932548 -100.3671875 284.92578125 C-102.02744997 283.43961926 -103.66968407 281.93295227 -105.2890625 280.40234375 C-107.23547839 278.56563494 -109.24273449 276.88132851 -111.3125 275.1875 C-139.98241298 250.0435239 -156.41675278 209.77379944 -159.4375 172.375 C-161.10632322 143.48259109 -156.23990257 115.39867003 -143.4375 89.375 C-143.13086426 88.74400391 -142.82422852 88.11300781 -142.50830078 87.46289062 C-135.24076978 72.67917282 -125.8513609 60.19189271 -114.4375 48.375 C-113.58671875 47.46105469 -112.7359375 46.54710937 -111.859375 45.60546875 C-83.04734166 15.45635003 -41.279058 -0.10908628 0 0 Z M-69.703125 94.30078125 C-84.1489657 111.57722587 -94.8119381 132.43773035 -95.4375 155.375 C-95.48777344 156.08398438 -95.53804687 156.79296875 -95.58984375 157.5234375 C-96.63442446 182.00840925 -86.56989222 206.29714304 -70.4375 224.375 C-69.71175781 225.19484375 -68.98601562 226.0146875 -68.23828125 226.859375 C-52.03413901 244.10808178 -29.17485168 254.52796566 -5.59375 255.75390625 C21.83236216 256.57703988 45.94427372 248.69464896 66.19140625 229.7109375 C85.43242659 210.75520412 96.17517421 186.93867911 96.8125 159.8125 C96.15510839 133.59417598 85.56499943 110.19177823 67.8125 91.1875 C47.8706719 72.28057715 22.90125118 63.81675687 -4.2890625 64.16015625 C-28.51198565 64.87889761 -53.10032003 76.67057498 -69.703125 94.30078125 Z " fill="#077666" transform="translate(1271.4375,95.625)"/>
<path d="M0 0 C0.62181152 0.29600098 1.24362305 0.59200195 1.88427734 0.89697266 C28.14473233 13.53887179 49.44272305 34.6277456 65 59 C65.37253906 59.57975586 65.74507812 60.15951172 66.12890625 60.75683594 C88.44594342 96.02351921 93.67171041 140.53322037 84.87304688 180.86328125 C77.97297705 209.62567758 63.60055327 234.90968618 43 256 C41.83791016 257.25490234 41.83791016 257.25490234 40.65234375 258.53515625 C13.78202076 286.8409556 -26.40134277 302.43452848 -65 304 C-66.47919922 304.061875 -66.47919922 304.061875 -67.98828125 304.125 C-109.45089088 304.96795013 -150.56194218 289.85596909 -180.67407227 261.21728516 C-182.12142813 259.8170632 -183.56098054 258.40878796 -185 257 C-185.73476562 256.31550781 -186.46953125 255.63101562 -187.2265625 254.92578125 C-197.48619549 245.17708616 -205.18516121 233.31067653 -212 221 C-212.35336426 220.36191406 -212.70672852 219.72382813 -213.07080078 219.06640625 C-233.0050616 182.49113121 -236.70376758 137.90514227 -225.33984375 98.0703125 C-217.51635076 72.14025311 -203.94394355 50.96646774 -186 31 C-185.39800781 30.32453125 -184.79601563 29.6490625 -184.17578125 28.953125 C-161.49734587 4.96082561 -128.17228114 -9.85391591 -96 -15 C-94.2984375 -15.27650391 -94.2984375 -15.27650391 -92.5625 -15.55859375 C-60.59685488 -19.36904264 -28.87605399 -14.01612447 0 0 Z M-140 77 C-140.80050781 77.79019531 -141.60101562 78.58039063 -142.42578125 79.39453125 C-159.6839704 97.36808575 -167.5453308 121.64283895 -167.35375977 146.22558594 C-166.66498641 173.17843957 -154.57959633 197.20650522 -135.28125 215.58984375 C-114.37444657 233.57584376 -89.07592067 240.57901295 -61.91894531 239.22753906 C-55.01690226 238.6895076 -48.55659848 237.17212465 -42 235 C-41.36449219 234.79632813 -40.72898437 234.59265625 -40.07421875 234.3828125 C-15.44310537 226.25605004 3.10884931 208.0513063 14.96191406 185.36230469 C25.84531614 163.66358257 27.59366927 137.05908584 20 114 C14.9252035 99.74903695 7.47281151 87.93510879 -3 77 C-4.03060547 75.85724609 -4.03060547 75.85724609 -5.08203125 74.69140625 C-20.52325114 58.16156604 -44.0395229 48.72428832 -66.4140625 47.77734375 C-94.89059009 47.02527659 -119.93293981 56.70128543 -140 77 Z " fill="#077666" transform="translate(1712,112)"/>
<path d="M0 0 C1.11761719 0.54398438 2.23523438 1.08796875 3.38671875 1.6484375 C40.07781869 20.50297136 67.25629352 53.87771565 80.8125 92.5625 C89.27465551 119.55941136 92.07106439 151.33061761 85 179 C84.70996094 180.2065625 84.70996094 180.2065625 84.4140625 181.4375 C74.14090321 223.54477019 47.97904422 258.64453569 11.21679688 281.38256836 C-11.69337108 295.13574017 -38.23262739 303.18240429 -65 304 C-65.98097656 304.03996094 -66.96195313 304.07992188 -67.97265625 304.12109375 C-110.55762384 305.03632061 -151.55970269 288.96603574 -182.4453125 259.77734375 C-213.57696728 229.73054799 -230.95971633 189.00983855 -231.99072266 145.83935547 C-232.13496997 101.69208515 -215.29542093 60.86260216 -184.43505859 29.44335938 C-160.80798067 5.67961581 -129.18237058 -10.12734607 -96 -15 C-94.87207031 -15.18175781 -93.74414062 -15.36351563 -92.58203125 -15.55078125 C-60.65369792 -19.39421818 -28.83178249 -14.04485097 0 0 Z M-146 83 C-162.95625161 103.3542306 -168.72883716 129.08070732 -167 155 C-164.28279244 179.00889658 -151.41420778 202.04168283 -132.984375 217.53515625 C-130.04725733 219.790712 -127.06490999 221.92216522 -124 224 C-123.20207031 224.55300781 -122.40414062 225.10601562 -121.58203125 225.67578125 C-101.48978755 238.70040154 -75.08208457 242.57944711 -51.80053711 237.81713867 C-36.37008169 234.13201431 -22.13807714 227.19859982 -10 217 C-9.27167969 216.41734375 -8.54335938 215.8346875 -7.79296875 215.234375 C9.12155793 201.13399899 20.66673514 179.22607464 23.71875 157.48046875 C25.94665777 129.91011015 20.27035284 104.08228112 2.20703125 82.49609375 C-14.83210551 63.22528244 -36.10438682 50.93632763 -62 48 C-95.5399762 45.98989192 -123.30602423 58.16970861 -146 83 Z " fill="#077666" transform="translate(975,112)"/>
<path d="M0 0 C4.46850351 3.85895142 8.76650987 7.88593131 13 12 C14.41732422 13.25490234 14.41732422 13.25490234 15.86328125 14.53515625 C18 17 18 17 18.36282349 19.38334656 C17.89141903 22.7830771 16.73340629 23.90578365 14.33154297 26.33129883 C13.53005829 27.151772 12.72857361 27.97224518 11.90280151 28.81758118 C11.02479889 29.6885997 10.14679626 30.55961823 9.2421875 31.45703125 C7.8984758 32.81147591 7.8984758 32.81147591 6.52761841 34.19328308 C4.62851858 36.10017194 2.72504064 38.00104362 0.8125 39.89428711 C-1.6342693 42.3181799 -4.05534888 44.76601669 -6.47000313 47.2218523 C-8.7808828 49.56449723 -11.11415821 51.88458744 -13.4453125 54.20703125 C-14.74409836 55.52874077 -14.74409836 55.52874077 -16.06912231 56.87715149 C-17.29971878 58.08422005 -17.29971878 58.08422005 -18.55517578 59.31567383 C-19.27021271 60.0289534 -19.98524963 60.74223297 -20.72195435 61.47712708 C-23.65935346 63.44077761 -25.53414703 63.36820285 -29 63 C-30.72827148 61.87353516 -30.72827148 61.87353516 -32.12109375 60.2890625 C-32.65605469 59.70833984 -33.19101562 59.12761719 -33.7421875 58.52929688 C-34.30164063 57.90087891 -34.86109375 57.27246094 -35.4375 56.625 C-51.68159582 39.45913 -74.46235138 28.6490122 -98.27734375 27.796875 C-123.53638318 27.369535 -146.60764934 34.22718058 -166 51 C-166.70125 51.72832031 -167.4025 52.45664063 -168.125 53.20703125 C-170 55 -170 55 -172 55 C-172.26554687 55.59039062 -172.53109375 56.18078125 -172.8046875 56.7890625 C-174.03090304 59.05716052 -175.33351588 60.53352098 -177.125 62.375 C-194.15849067 81.53325042 -199.32895287 107.26096614 -198.21142578 132.14697266 C-196.45913237 155.79281655 -184.25033355 177.37743445 -167.33984375 193.54296875 C-146.34561095 211.50710609 -121.17201275 218.58390528 -93.93212891 217.23193359 C-72.80276746 215.56058527 -53.13032899 205.47596359 -37.8828125 191.078125 C-37.35163818 190.57885498 -36.82046387 190.07958496 -36.27319336 189.56518555 C-35.23834839 188.5845126 -34.21259413 187.5941306 -33.19750977 186.59301758 C-30.20444102 183.73634442 -28.16489525 182.21133105 -24 182 C-21.79751587 183.44058228 -21.79751587 183.44058228 -19.56103516 185.66259766 C-18.71731354 186.48740631 -17.87359192 187.31221497 -17.00430298 188.16201782 C-16.10827362 189.07019257 -15.21224426 189.97836731 -14.2890625 190.9140625 C-13.36153168 191.83585297 -12.43400085 192.75764343 -11.47836304 193.70736694 C-9.51683757 195.66004698 -7.56657304 197.62316621 -5.62353516 199.59423828 C-3.13174603 202.12021447 -0.61398429 204.6182928 1.91283226 207.10917091 C4.31852217 209.48796777 6.70109244 211.88936606 9.0859375 214.2890625 C9.99411224 215.18509186 10.90228699 216.08112122 11.83798218 217.00430298 C12.66279083 217.8480246 13.48759949 218.69174622 14.33740234 219.56103516 C15.07066742 220.29907379 15.8039325 221.03711243 16.55941772 221.79751587 C18 224 18 224 17.80917358 226.66581726 C16.9184718 229.23518033 15.99462653 230.50803841 14.078125 232.41796875 C13.47145996 233.02761475 12.86479492 233.63726074 12.23974609 234.26538086 C11.58312988 234.89968018 10.92651367 235.53397949 10.25 236.1875 C9.57404785 236.84951416 8.8980957 237.51152832 8.20166016 238.19360352 C-19.44904714 264.85007714 -58.368699 282.24569287 -97 283 C-97.97582031 283.03867187 -98.95164062 283.07734375 -99.95703125 283.1171875 C-142.74287552 284.0859236 -183.50780218 267.80229111 -214.59765625 238.66015625 C-244.60005339 209.90417232 -262.2740767 170.58396461 -264 129 C-264.04125 128.09894531 -264.0825 127.19789063 -264.125 126.26953125 C-265.15618857 80.57498778 -246.54570895 40.01488382 -215.44360352 7.36621094 C-204.33369256 -4.02518255 -191.12586001 -12.80976153 -177 -20 C-176.38979004 -20.31662598 -175.77958008 -20.63325195 -175.15087891 -20.95947266 C-160.35075828 -28.56812527 -144.41153172 -33.37491035 -128 -36 C-126.2984375 -36.27650391 -126.2984375 -36.27650391 -124.5625 -36.55859375 C-79.44938546 -41.93628022 -34.92893255 -28.93446923 0 0 Z " fill="#077666" transform="translate(677,133)"/>
<path d="M0 0 C2.1484375 1.53125 2.1484375 1.53125 4.375 3.5 C39.42034807 32.53164928 89.58877498 44.19449765 134.125 40.25 C170.43397909 36.66223371 204.24303353 23.46335428 233 1 C236 -1 236 -1 238.37890625 -1 C242.04072163 0.39705624 243.71689662 2.92448312 245.9375 6 C246.89880261 7.2777293 247.8624574 8.55369141 248.828125 9.828125 C249.59286133 10.84422852 249.59286133 10.84422852 250.37304688 11.88085938 C253.21504397 15.5826203 256.20550443 19.16081257 259.1875 22.75 C264.18290777 28.78758113 269.1684272 34.82970426 274 41 C274.58394531 41.64324219 275.16789062 42.28648437 275.76953125 42.94921875 C277 45 277 45 276.7980957 47.41259766 C274.65849208 54.34912847 265.45067874 58.98116848 259.625 62.8125 C258.84970947 63.32458008 258.07441895 63.83666016 257.27563477 64.36425781 C200.8409067 101.14105024 132.25599436 114.48776066 66.10913086 101.35742188 C27.30293071 93.11305112 -8.96117567 76.80062924 -40 52 C-40.93585938 51.28650391 -40.93585938 51.28650391 -41.890625 50.55859375 C-43 49 -43 49 -43.0546875 46.77734375 C-41.51365334 42.71928713 -38.92232799 39.84149761 -36.125 36.5625 C-34.93130013 35.12973176 -33.73860842 33.69612304 -32.546875 32.26171875 C-31.94810547 31.5454834 -31.34933594 30.82924805 -30.73242188 30.09130859 C-28.22356603 27.06272077 -25.79395545 23.97554447 -23.375 20.875 C-22.93631592 20.31538574 -22.49763184 19.75577148 -22.0456543 19.17919922 C-19.66777735 16.1439272 -17.30192504 13.09956743 -14.94140625 10.05078125 C-14.43883301 9.40447754 -13.93625977 8.75817383 -13.41845703 8.09228516 C-12.45133629 6.84838868 -11.48732342 5.60206788 -10.52685547 4.35302734 C-6.99947156 -0.17730457 -5.67556303 -1.67420738 0 0 Z " fill="#077666" transform="translate(1155,413)"/>
<path d="M0 0 C10.85698056 5.88543391 18.03474828 14.31291676 21.90234375 26.01953125 C23.99132158 37.20630037 22.88068164 48.66169468 17 58.45703125 C10.62644885 67.59942019 2.24665464 73.82020361 -8.6796875 76.2578125 C-22.50511607 77.2255925 -33.13963653 76.26252904 -44.1171875 66.9453125 C-48.10613152 63.08421925 -51.23248272 59.24211937 -53.6796875 54.2578125 C-53.98519531 53.64550781 -54.29070312 53.03320312 -54.60546875 52.40234375 C-58.56660222 43.29736872 -58.60022318 32.65197797 -55.6796875 23.2578125 C-50.33761117 10.47185933 -42.25055165 3.64000471 -29.6796875 -1.7421875 C-20.78929578 -4.70565141 -8.50339172 -3.71860861 0 0 Z " fill="#077666" transform="translate(1424.6796875,50.7421875)"/>
</svg>
